PathFileType	4	(X/Y/Z)	 s01c0101.trc
DataRate	CameraRate	NumFrames	NumMarkers	Units	OrigDataRate	OrigDataStartFrame	OrigNumFrames
200	200	7	47	mm	200	1751	2000
Frame#	Time	racr			lacr			c7			jug			rlel			rdr			llel			ldr			s2			lic			ric			lasi			rasi			rpsi			lpsi			rgt			lgt			rth1			rth2			rth3			rth4			rlfc			rsh1			rsh2			rsh3			rsh4			rlmal			rmmal			rcal			rtoe			rmt5			lth1			lth2			lth4			lth3			llfc			lsh1			lsh2			lsh3			lsh4			llmal			lcal			ltoe			lmt5			SBIKE			LBIKE			RBIKE			
		X1	Y1	Z1	X2	Y2	Z2	X3	Y3	Z3	X4	Y4	Z4	X5	Y5	Z5	X6	Y6	Z6	X7	Y7	Z7	X8	Y8	Z8	X9	Y9	Z9	X10	Y10	Z10	X11	Y11	Z11	X12	Y12	Z12	X13	Y13	Z13	X14	Y14	Z14	X15	Y15	Z15	X16	Y16	Z16	X17	Y17	Z17	X18	Y18	Z18	X19	Y19	Z19	X20	Y20	Z20	X21	Y21	Z21	X22	Y22	Z22	X23	Y23	Z23	X24	Y24	Z24	X25	Y25	Z25	X26	Y26	Z26	X27	Y27	Z27	X28	Y28	Z28	X29	Y29	Z29	X30	Y30	Z30	X31	Y31	Z31	X32	Y32	Z32	X33	Y33	Z33	X34	Y34	Z34	X35	Y35	Z35	X36	Y36	Z36	X37	Y37	Z37	X38	Y38	Z38	X39	Y39	Z39	X40	Y40	Z40	X41	Y41	Z41	X42	Y42	Z42	X43	Y43	Z43	X44	Y44	Z44	X45	Y45	Z45	X46	Y46	Z46	X47	Y47	Z47	
1751	8.7550	470.159982	1327.257986	-110.518419	496.309516	1335.493304	-405.976764	422.960446	1399.871279	-257.745718	437.449087	1239.131037	-265.199349	565.018496	1067.530655	-40.036665	722.198210	850.206023	-73.511504	579.456882	1070.075730	-476.284563	722.169508	854.483630	-414.702298	-83.108223	1135.585575	-257.646772	82.532643	1154.650076	-433.536288	82.788994	1146.624392	-108.582919	86.499339	1101.985558	-412.129713	108.382356	1101.326353	-138.708290	-51.946852	1176.776736	-206.946643	-58.080878	1179.423704	-312.255352	32.340861	1027.285408	-73.574049	31.106374	1023.376051	-461.905011	125.366204	924.840748	-54.924548	189.338616	871.799615	-54.854576	254.314900	809.171213	-65.279991	226.270570	911.943215	-68.224069	306.793629	717.204891	-84.528506	223.163804	635.846498	-55.661905	169.622181	570.244713	-61.701472	106.375028	508.429626	-75.657924	247.947830	530.137726	-112.921144	11.566228	426.849115	-97.495627	57.025647	420.981004	-174.774848	-38.329363	423.502779	-154.099237	181.957109	266.239013	-134.038954	76.204977	296.134731	-67.443582	139.150493	946.343907	-467.566172	225.990934	936.694111	-462.612390	234.859623	991.902807	-459.277818	308.607724	919.384603	-443.976484	404.475133	868.665905	-419.258896	361.374354	761.020058	-447.794134	348.042198	676.026173	-442.550618	332.326448	591.971331	-429.402542	403.604399	669.096804	-416.237747	304.912477	474.506014	-412.555166	253.636696	450.540053	-369.486735	519.693429	369.917814	-367.096864	414.614814	372.797715	-436.788079	-224.500399	893.158048	-250.213161	-12.124216	84.278313	-453.564746	-20.268922	80.684430	-53.680734	
1752	8.7600	470.011448	1327.163089	-110.234204	496.326547	1335.409501	-405.818445	423.002420	1399.860708	-257.622866	437.412898	1238.984448	-264.955899	565.001513	1067.508920	-40.006045	722.133350	850.184086	-73.548686	579.416856	1070.024639	-476.049020	722.167672	854.438544	-414.612036	-83.066288	1135.611867	-257.489796	82.295355	1154.675869	-433.466432	82.944179	1146.610366	-108.446061	86.520979	1101.850519	-412.118235	108.439662	1101.363139	-138.834167	-51.880898	1176.841494	-206.841227	-58.010902	1179.421211	-312.166404	32.640626	1027.608786	-73.435357	30.949036	1022.835941	-461.572216	126.340754	925.924407	-54.632176	190.825152	873.474475	-54.489931	256.393533	811.430541	-64.816983	227.372512	913.928220	-67.850576	309.451968	720.185983	-83.962889	225.115817	640.066706	-55.229962	170.738873	574.990109	-61.327230	106.685042	514.100713	-75.278807	245.798571	535.356068	-111.767752	10.971952	432.949656	-98.037363	56.482412	427.293904	-174.599529	-38.859117	429.902566	-154.006940	180.768109	271.961685	-134.064316	75.111001	302.109026	-67.414791	138.233482	944.146686	-467.637419	224.920129	933.469589	-462.784522	234.514203	987.932434	-458.795964	307.308037	914.912029	-443.941701	402.718088	862.970687	-419.300007	360.428172	754.912022	-447.994681	347.736683	669.847851	-442.610235	332.651516	585.695131	-429.453107	403.407270	663.263858	-416.077481	305.950305	468.155127	-412.593784	254.911810	443.779234	-369.257400	520.693771	364.067113	-367.298007	415.715652	366.694915	-436.741433	-224.517315	893.156280	-250.239460	-12.136414	84.296795	-453.552065	-20.272922	80.670990	-53.683817	
1753	8.7650	469.898885	1327.112932	-109.953793	496.362216	1335.321692	-405.676432	423.087901	1399.844233	-257.500202	437.373764	1238.855106	-264.724276	565.052866	1067.526623	-40.000262	722.119588	850.192315	-73.584698	579.410581	1069.965711	-475.763226	722.167209	854.378276	-414.520313	-82.994507	1135.677317	-257.370152	82.149761	1154.779385	-433.446618	83.087714	1146.608198	-108.320031	86.565484	1101.742687	-412.105862	108.513077	1101.446694	-138.965371	-51.830666	1176.940919	-206.742678	-57.912888	1179.426811	-312.066441	32.941509	1027.942920	-73.297608	30.773464	1022.241983	-461.200419	127.229552	927.024144	-54.415695	192.278171	875.264663	-54.071854	258.850977	813.887956	-64.309844	228.435436	916.067282	-67.502809	312.021551	723.393671	-83.446057	227.029498	644.392759	-54.779363	172.022293	579.986025	-60.905509	107.259230	519.661351	-74.939426	242.019710	541.228800	-110.083130	10.716569	439.310419	-97.925811	56.167062	433.316661	-174.349815	-39.061013	436.327790	-153.904051	180.004642	277.562128	-134.010455	74.337615	308.056459	-67.327990	137.282469	941.964309	-467.701760	223.813134	930.016343	-462.902833	233.744440	984.286400	-459.044622	305.882135	910.357202	-443.950356	400.964763	857.322894	-419.400443	359.477846	748.746189	-448.149397	347.400308	663.610106	-442.728546	332.747867	579.371069	-429.531455	402.934751	657.543802	-415.985244	306.644349	461.865424	-412.713986	255.303274	437.748371	-369.624212	521.739961	358.269273	-367.283930	416.552394	360.675536	-436.722942	-224.518884	893.158724	-250.248726	-12.136817	84.252216	-453.540166	-20.279304	80.686777	-53.677875	
1754	8.7700	469.813716	1327.115937	-109.662684	496.415275	1335.268982	-405.496936	423.203163	1399.862563	-257.372322	437.405194	1238.826690	-264.504939	565.159058	1067.566406	-40.051637	722.081215	850.218372	-73.632884	579.490020	1069.967575	-475.479324	722.189254	854.297367	-414.428497	-82.932364	1135.779785	-257.281498	82.075848	1154.927099	-433.414084	83.192854	1146.644784	-108.203422	86.640995	1101.655770	-412.115389	108.540675	1101.599607	-139.094758	-51.754161	1177.083092	-206.633189	-57.780180	1179.442563	-312.018874	33.172080	1028.349145	-73.143715	30.692666	1021.728313	-460.871805	128.186157	928.230014	-54.126336	193.764100	877.133871	-53.665459	260.997392	816.500942	-63.923468	229.429043	918.369449	-67.137416	314.748439	727.012917	-82.611393	229.096207	648.925404	-54.304184	173.403972	585.012714	-60.410016	108.004924	525.379572	-74.550108	236.448208	547.811072	-107.816980	11.032044	445.699192	-97.818264	56.374920	439.446677	-174.122417	-38.901478	442.779206	-153.799271	179.282552	283.068405	-133.951416	73.828153	313.973085	-67.263813	136.299968	939.792299	-467.756948	222.648832	926.602364	-463.007945	233.258039	980.787310	-459.083904	304.463750	905.828624	-444.000984	399.047515	851.539265	-419.463246	357.847309	742.035212	-448.064399	346.712485	657.525246	-442.981703	332.643588	573.059535	-429.625500	402.264820	651.641968	-415.827008	307.055646	455.387334	-412.716963	255.595738	431.671542	-369.868856	522.263163	352.673602	-367.395864	417.101349	354.732961	-436.745690	-224.525977	893.144803	-250.271650	-12.141963	84.277389	-453.552632	-20.277410	80.677646	-53.672774	
1755	8.7750	469.787458	1327.151205	-109.387171	496.502688	1335.214313	-405.316480	423.331710	1399.907464	-257.247731	437.419945	1238.818979	-264.294412	565.277709	1067.654459	-40.113540	722.067167	850.233872	-73.670288	578.792745	1069.886902	-476.076235	722.256561	854.236618	-414.388948	-82.856440	1135.918610	-257.206256	82.020128	1155.052920	-433.358196	83.245993	1146.715565	-108.092191	86.777405	1101.585046	-412.111251	108.524553	1101.753014	-139.197706	-51.697245	1177.233658	-206.594600	-57.635988	1179.464614	-311.981539	33.392719	1028.797022	-73.008416	30.578375	1021.170524	-460.575575	129.062119	929.526722	-53.799909	195.244431	879.222139	-53.246557	263.182421	819.307585	-63.545898	230.440896	920.883499	-66.734804	317.459299	730.861507	-82.007527	231.192141	653.603856	-53.812770	174.969287	590.105574	-59.942034	109.086629	531.116132	-74.174903	227.315857	555.776411	-104.595695	11.536088	451.934057	-97.652026	56.764940	445.378857	-173.878663	-38.352880	449.255306	-153.681027	178.863056	288.307745	-133.966864	73.570026	319.770977	-67.182799	135.289101	937.625996	-467.801450	221.407091	923.162188	-463.038130	232.779397	977.229074	-459.267873	302.919624	901.249762	-443.998273	397.071609	845.648639	-419.556946	357.109618	736.426727	-448.709443	345.771092	651.354516	-443.233370	332.229873	566.800350	-429.712022	401.332348	645.786112	-415.709792	307.206371	449.153331	-412.789268	255.659301	425.177684	-369.678483	522.463036	347.056687	-367.371690	417.492813	348.840619	-436.872904	-224.525225	893.156384	-250.275685	-12.135936	84.295030	-453.534381	-20.269675	80.675748	-53.672477	
1756	8.7800	469.758365	1327.195885	-109.138653	496.629049	1335.194601	-405.102395	423.500011	1399.959123	-257.158455	437.437412	1238.852817	-264.087566	565.431880	1067.747336	-40.229701	722.066717	850.263602	-73.712568	578.954021	1069.949115	-475.809735	722.310697	854.208399	-414.318328	-82.751139	1136.071798	-257.201879	82.205696	1155.226149	-433.373932	83.302233	1146.806260	-108.001441	86.960232	1101.500423	-412.129897	108.490055	1101.931604	-139.312612	-51.638839	1177.388815	-206.561340	-57.468945	1179.508618	-312.012681	33.521476	1029.273550	-72.852563	30.533525	1020.748150	-460.240748	129.940555	931.033979	-53.468533	196.739938	881.425432	-52.830048	265.587051	822.446173	-62.984602	231.451261	923.519138	-66.285832	320.336431	734.817772	-81.406137	233.326116	658.393673	-53.368962	176.695479	595.329854	-59.496840	110.506054	536.753005	-73.788030	218.236267	563.893050	-101.351040	12.450735	458.131186	-97.545089	59.249438	451.914174	-173.348163	-37.406242	455.744625	-153.566034	178.657351	293.267254	-133.912496	73.600832	325.447900	-67.127215	134.253453	935.460928	-467.834478	220.103202	919.834317	-463.183723	232.316543	973.540770	-459.429355	301.255208	896.695735	-444.074441	394.978938	839.939948	-419.839549	355.611107	730.397786	-448.895396	344.700823	645.149400	-443.400106	331.517294	560.554619	-429.782156	400.136927	639.919133	-415.574852	306.919736	442.849630	-412.856685	255.479261	419.206835	-369.838170	522.566703	341.645619	-367.526486	417.558581	343.065184	-436.863307	-224.516762	893.137346	-250.286126	-12.123180	84.300809	-453.535485	-20.269720	80.680342	-53.674860	
1757	8.7850	469.795342	1327.283265	-108.914900	496.764556	1335.204716	-404.879307	423.689531	1400.028711	-257.025285	437.476126	1238.904083	-263.917325	565.570346	1067.854136	-40.288612	722.040371	850.285366	-73.732458	579.929324	1070.178703	-474.687006	722.403285	854.149004	-414.279476	-82.619167	1136.286534	-257.284973	82.354468	1155.349632	-433.352943	83.316971	1146.933145	-107.911438	87.156112	1101.416457	-412.154786	108.417692	1102.156572	-139.346257	-51.584196	1177.587236	-206.572625	-57.288233	1179.574032	-312.092817	33.645336	1029.875750	-72.702923	30.530131	1020.171096	-459.944173	130.844349	932.619614	-53.108268	198.243931	883.925811	-52.332653	267.490509	825.816859	-62.696909	232.473627	926.371700	-65.907209	323.383211	739.074364	-80.768987	235.542239	663.322160	-52.891533	178.774928	600.633715	-58.867262	112.112524	542.417251	-73.452700	212.823053	570.929221	-99.014781	13.741478	464.235886	-97.459683	59.764760	457.446449	-173.241216	-36.089692	462.260331	-153.462010	178.685506	298.002789	-133.889930	73.878471	330.991611	-67.122011	133.196881	933.293053	-467.855903	218.769098	916.378974	-463.273531	231.782858	969.934421	-459.628027	299.630398	892.048412	-444.062478	392.647810	833.874132	-419.690774	353.888464	724.359021	-449.119243	343.526791	638.790572	-443.070709	330.432266	554.398029	-429.892998	398.653261	634.002603	-415.456643	305.992746	436.631054	-412.933941	254.865737	412.521204	-369.475954	522.550584	336.933679	-367.887446	417.324557	337.424884	-436.770244	-224.514934	893.139598	-250.289744	-12.132004	84.265803	-453.541726	-20.268604	80.690564	-53.671764	
